<?xml version="1.0" encoding="utf-8"?>
<!-- Generator: Adobe Illustrator 25.0.0, SVG Export Plug-In . SVG Version: 6.00 Build 0)  -->
<svg version="1.1" id="Capa_1" xmlns="http://www.w3.org/2000/svg" xmlns:xlink="http://www.w3.org/1999/xlink" x="0px" y="0px"
	 viewBox="0 0 150 150" style="enable-background:new 0 0 150 150;" xml:space="preserve">
<style type="text/css">
	.st0{fill:#005AEB;}
	.st1{fill:#FFFFFF;}
</style>
<ellipse cx="75.03" cy="136.44" rx="37.46" ry="9.21"/>
<path class="st0" d="M128.27,61.02c0-30.11-24.98-54.38-55.34-53.23C45.3,8.84,22.79,31.37,21.76,59
	c-0.54,14.54,4.76,27.85,13.73,37.76h0l34.72,41.96c2.63,3.18,7.52,3.16,10.13-0.04l34.16-41.92h0
	C123.06,87.31,128.27,74.78,128.27,61.02z"/>
<path class="st1" d="M106.45,91.42l-1.4-2.82c-0.27-0.55-0.83-0.9-1.44-0.9h-2.86V44.97H87.29V28.78H49.26V87.7h-2.86
	c-0.61,0-1.17,0.35-1.44,0.9l-1.4,2.82c-0.39,0.79-0.07,1.75,0.72,2.14c0.22,0.11,0.46,0.17,0.71,0.17h60.03
	c0.88,0,1.6-0.72,1.59-1.61C106.61,91.87,106.55,91.64,106.45,91.42z M65.78,78.07h-8.3v-8.3h8.3V78.07z M65.78,61.68h-8.3v-8.3h8.3
	V61.68z M65.78,45.29h-8.3v-8.3h8.3V45.29z M79.18,86.83h-8.3V69.77h8.3V86.83z M79.18,61.68h-8.3v-8.3h8.3V61.68z M79.18,45.29
	h-8.3v-8.3h8.3V45.29z M92.53,78.07h-8.3v-8.3h8.3V78.07z M92.53,61.68h-8.3v-8.3h8.3V61.68z"/>
</svg>
