<svg xmlns="http://www.w3.org/2000/svg" width="30.231" height="32.026" viewBox="0 0 30.231 32.026"><defs><style>.a{fill:#1f3561;}</style></defs><path class="a" d="M68.411,55.178H49.966A1.121,1.121,0,0,0,48.845,56.3v5.5a1.169,1.169,0,0,0,.3.928L55.526,69.1a.141.141,0,0,0,.249-.091V62.5a.249.249,0,0,0-.25-.249H50.484a.594.594,0,0,1-.594-.594V56.815a.594.594,0,0,1,.594-.594H67.392a.594.594,0,0,1,.594.594V61.66a.593.593,0,0,1-.593.594H62.352a.25.25,0,0,0-.25.25V81.374a.593.593,0,0,1-.593.594H56.5a.158.158,0,0,0-.127.257c1.1,1.1,3.306,3.306,4.427,4.427a1.68,1.68,0,0,0,1.2.553h4.815a.825.825,0,0,0,.825-.826V75.137a.25.25,0,0,1,.25-.25h.528c5.411,0,10.665-3.3,10.665-9.893C79.076,59.126,75.031,55.178,68.411,55.178Z" transform="translate(-48.845 -55.178)"/></svg>